<svg width="48" height="48" viewBox="0 0 48 48" fill="none" xmlns="http://www.w3.org/2000/svg">
<mask id="mask0_7441_9902" style="mask-type:alpha" maskUnits="userSpaceOnUse" x="0" y="0" width="48" height="48">
<path d="M24 48C37.2548 48 48 37.2548 48 24C48 10.7452 37.2548 0 24 0C10.7452 0 0 10.7452 0 24C0 37.2548 10.7452 48 24 48Z" fill="#C4C4C4"/>
</mask>
<g mask="url(#mask0_7441_9902)">
<path d="M48 24C48 10.7452 37.2548 0 24 0C10.7452 0 0 10.7452 0 24C0 37.2548 10.7452 48 24 48C37.2548 48 48 37.2548 48 24Z" fill="url(#paint0_radial_7441_9902)"/>
<path d="M40.3203 16.5084C40.2197 17.0959 40.1022 17.3808 39.9644 17.7105L39.9641 17.7112C39.8155 18.0686 39.647 18.4743 39.4942 19.279C39.4335 19.6011 39.4031 19.8374 39.3766 20.0456L39.375 20.0585L39.3734 20.0707C39.3309 20.4043 39.3025 20.629 39.167 21.0288C39.057 21.3554 38.8731 21.9002 38.43 22.4872C38.0725 22.9621 37.4736 23.757 36.6746 23.8524C36.6054 23.857 36.4601 23.8643 36.401 23.8341C34.1342 22.6765 32.1866 21.8212 31.5124 21.6292C30.7282 21.4071 30.8286 19.6975 30.9173 18.1892C30.9572 17.5151 30.9948 16.8776 30.9632 16.3318C30.8531 14.4276 30.5158 12.3434 28.8576 11.3273C27.8676 10.7209 26.5905 10.5431 25.3702 10.5406C25.5964 10.433 25.8486 10.2868 26.1234 10.1268L26.1318 10.122C26.8503 9.70587 27.7421 9.18943 28.6283 9.09852C28.9182 9.06995 29.203 9.03638 29.4837 9.00533C31.2703 8.80301 32.8137 8.6292 34.4418 9.18665C35.1797 9.43981 36.6935 10.2843 37.0844 11.0685C37.3593 11.6219 37.8237 12.0536 38.75 12.9146C39.2323 13.3633 39.55 13.6241 39.7825 13.815L39.7933 13.8237C40.1198 14.0923 40.1842 14.1484 40.2811 14.347C40.5815 14.9587 40.4722 15.6084 40.3203 16.5084Z" fill="white"/>
<path d="M32.0278 24.3205C32.1584 24.365 32.2073 24.5237 32.1323 24.6394C31.8965 25.0029 31.6274 25.4923 31.3072 26.086C31.1513 26.3765 31.0035 26.6506 30.8796 26.8646C30.4404 27.6187 30.4047 28.2536 30.3767 28.7631C30.3466 29.296 30.3196 29.5407 30.0012 29.7531C29.7383 29.9294 29.4692 29.9881 27.6027 30.2723C27.2771 30.3228 27.1325 30.3858 27.0054 30.4414C26.985 30.4502 26.9648 30.4589 26.9435 30.4677C26.8142 30.5208 26.6856 30.4094 26.6927 30.2698C26.706 30.0095 26.7144 29.689 26.7155 29.2923V29.2114C26.7253 28.8456 26.7099 28.5488 26.6967 28.3095C26.6722 27.833 26.6691 27.6322 26.7962 27.4248C26.9521 27.1742 27.0738 27.0976 27.2736 26.9709C27.5528 26.7956 27.9355 26.554 28.5021 25.7754C28.8032 25.3632 28.87 25.1395 28.9118 24.9463C28.9296 24.8663 28.9362 24.8362 29.1681 24.6605C29.413 24.4745 30.1597 23.9089 31.1155 24.0695C31.3684 24.1124 31.6877 24.2045 32.0278 24.3205Z" fill="white"/>
<path d="M24.648 32.9411C24.6072 32.994 24.5599 33.0184 24.4912 33.022C24.296 33.0299 24.1589 32.9819 24.0683 32.8725C23.8757 32.6382 23.9017 32.1674 23.9466 31.8922L24.7358 31.6818C24.7976 32.0996 24.8268 32.7082 24.648 32.9411Z" fill="white"/>
<path d="M24.7118 30.0935C24.6986 30.2086 24.6841 30.3381 24.6848 30.4736C24.6857 30.5242 24.6864 30.575 24.6879 30.6245C24.6895 30.7535 24.6945 30.9583 24.6766 31.0515C24.4301 31.1412 24.2195 31.1412 23.9429 31.1365C23.9388 31.0565 23.9438 30.9373 23.947 30.8567C23.9485 30.7945 23.952 30.7328 23.9526 30.6738C23.9536 30.6085 23.9526 30.5439 23.9526 30.4796C23.9517 30.3278 23.9495 30.079 23.9868 30.0056C24.0611 29.9949 24.1371 29.9786 24.2186 29.9598C24.3817 29.9247 24.5947 29.8798 24.7303 29.9002C24.7281 29.9529 24.7199 30.0313 24.7118 30.0935Z" fill="white"/>
<path d="M23.2515 32.6978C23.2132 33.1024 23.0884 33.6026 22.7088 33.6787C22.5381 33.7136 22.4556 33.6624 22.4036 33.6134C22.1473 33.376 22.1065 32.6586 22.1422 32.1452C22.3129 32.1484 22.5366 32.1101 22.8017 32.0587C22.9632 32.0267 23.1241 31.9909 23.2521 31.9614C23.2669 32.1515 23.2775 32.4226 23.2515 32.6978Z" fill="white"/>
<path d="M23.0723 31.2458L22.2162 31.546C22.2595 31.2138 22.3175 30.7461 22.3379 30.4352C22.3526 30.2166 22.4123 30.1494 22.4292 30.135C22.4348 30.13 22.4465 30.1196 22.4781 30.1196C22.4832 30.1196 22.4879 30.1206 22.4935 30.1206L22.5114 30.1231L23.0525 30.0936C23.0754 30.348 23.0754 30.9064 23.0723 31.2458Z" fill="white"/>
<path d="M21.6888 30.9795C21.6405 31.1084 21.5834 31.4733 21.5477 31.7302L20.4751 31.6976C20.5357 31.3654 20.6194 31.0275 20.7117 30.758C20.8048 30.4904 20.9052 30.2897 20.9974 30.2332C21.105 30.1686 21.3419 30.1542 21.4871 30.2781C21.723 30.4791 21.7883 30.7094 21.6888 30.9795Z" fill="white"/>
<path d="M21.2885 34.2622C21.2054 34.3758 21.1132 34.4336 20.9987 34.4457C20.882 34.4588 20.7913 34.4327 20.7188 34.3647C20.3819 34.0539 20.4095 33.0354 20.4218 32.5456C20.8666 32.4443 21.3466 32.358 21.5743 32.3449C21.6085 32.7549 21.6182 33.8132 21.2885 34.2622Z" fill="white"/>
<path d="M19.8888 31.669C19.8365 31.8086 19.7859 31.9406 19.7477 32.0573C19.6228 32.0966 19.2417 32.0623 18.8524 31.9764L19.1199 30.2887C19.5597 30.172 20.0698 30.1344 20.1931 30.2652C20.3556 30.4377 20.0294 31.301 19.8888 31.669Z" fill="white"/>
<path d="M19.4031 34.5202C19.1951 34.7765 18.8833 34.8963 18.4482 34.8918C18.147 34.8865 18.0394 34.7722 17.9855 34.6867C17.7439 34.304 17.9804 33.4021 18.2173 32.8258L19.67 32.913C19.6848 33.0145 19.697 33.1373 19.7027 33.2715C19.7187 33.6813 19.6672 34.192 19.4031 34.5202Z" fill="white"/>
<path d="M31.4085 22.2703C30.1007 21.8999 30.2133 19.9875 30.3221 18.1392C30.3607 17.4852 30.3971 16.8668 30.3673 16.3612C30.2669 14.6311 29.9761 12.747 28.5845 11.8941C27.088 10.9788 24.6395 11.1875 23.1289 11.3797C23.1275 11.3799 23.1262 11.3807 23.1248 11.3809C23.1242 11.3809 23.1237 11.381 23.1231 11.3812C22.5698 11.5488 22.0522 11.6576 21.6508 11.6362C20.7596 11.5901 20.066 11.2149 19.4553 10.8856C18.9788 10.6274 18.5631 10.4043 18.1716 10.4043C18.1509 10.4043 18.1293 10.4043 18.1079 10.4053C16.9369 10.4812 16.3986 10.7673 15.9095 11.2037C15.7865 11.3125 15.6366 11.6278 15.1457 13.0425C14.8978 13.7575 14.852 14.1486 14.8059 14.5288C14.7645 14.8761 14.7225 15.2334 14.5377 15.7664C14.4091 16.134 14.3144 16.4512 14.2225 16.7571C13.9803 17.5695 13.7889 18.2095 13.2139 18.9705C13.1464 19.0606 13.0627 19.1929 12.9661 19.3438C12.8356 19.5493 12.6743 19.8046 12.4613 20.1001C12.3111 20.3084 11.966 21.088 11.9848 21.3255C12.013 21.7035 12.136 21.9381 12.2766 22.212C12.4165 22.4821 12.5758 22.7879 12.605 23.2102L12.6097 23.2786C12.6611 23.9483 12.5655 24.2843 11.2915 25.4224C10.477 26.1512 9.89834 26.8535 9.50807 27.3686C9.47362 27.4141 9.51842 27.4816 9.57527 27.4771C9.58843 27.4752 9.60162 27.4743 9.61387 27.4743C9.63832 27.4724 9.66278 27.4715 9.68695 27.4715C9.7114 27.4715 9.73589 27.4724 9.76002 27.4733C9.78451 27.4743 9.80802 27.4762 9.83219 27.4799C10.1403 27.515 10.4406 27.6453 10.6574 27.8699C10.6951 27.9089 10.7537 27.9195 10.8041 27.8994C11.0114 27.8131 11.2395 27.8272 11.4572 27.8476C11.7162 27.8716 11.9778 27.9472 12.1563 28.108C12.2242 28.1691 12.3175 28.2016 12.4071 28.1832C12.6098 28.1416 12.8211 28.1485 13.0175 28.22C13.1632 28.2742 13.2881 28.3567 13.3904 28.46C13.4869 28.5574 13.6501 28.5768 13.7693 28.5089C13.8169 28.4818 13.8682 28.4584 13.9238 28.4395C14.2005 28.3457 14.5063 28.3991 14.7749 28.4957C14.9073 28.5434 15.0459 28.5857 15.1651 28.6654C15.362 28.7964 15.49 28.9821 15.5759 29.1913C15.6419 29.3519 15.8615 29.4068 16.0025 29.3054C16.1718 29.1835 16.3116 29.1678 16.4525 29.2304C16.5108 29.2567 16.5563 29.2901 16.5912 29.3303C16.6922 29.4467 16.8544 29.5628 17.0044 29.5273C17.4221 29.4285 17.9279 29.494 18.299 29.6928C18.436 29.7649 18.5708 29.8746 18.6692 30.0407C18.6694 30.0408 18.6694 30.0409 18.6695 30.0411C18.6696 30.0418 18.6705 30.0414 18.6706 30.0408L18.6818 29.967C18.6869 29.9336 18.7106 29.906 18.7429 29.896L18.8329 29.8681C19.045 29.8007 20.1256 29.4892 20.546 29.9318C20.5642 29.95 20.5959 29.9518 20.6133 29.9328C20.6706 29.8702 20.717 29.8357 20.7468 29.8185C21.0206 29.6526 21.4899 29.6423 21.8024 29.9096C21.8652 29.9623 21.9671 29.9432 22.0145 29.8761C22.0437 29.8348 22.0768 29.7984 22.1138 29.7671C22.2237 29.6724 22.3626 29.6272 22.5163 29.6366L23.1102 29.6046C23.2595 29.5964 23.7234 29.5649 23.8697 29.5339C23.8808 29.5316 23.8922 29.5295 23.9038 29.5278C23.9656 29.5184 24.039 29.5024 24.1159 29.4864C24.4039 29.4236 24.7304 29.353 24.9986 29.4769C25.2565 29.5961 25.2239 29.8898 25.1928 30.1486C25.1806 30.2537 25.1674 30.3635 25.1683 30.4676C25.1702 30.5162 25.1712 30.5652 25.1721 30.6151C25.1759 30.8382 25.1806 31.0444 25.1365 31.2027C25.1364 31.2031 25.1363 31.2034 25.1363 31.2038C25.1363 31.2041 25.1364 31.2043 25.1364 31.2046L25.1636 31.3272C25.192 31.4477 25.3208 31.5157 25.4261 31.4505C25.6267 31.3266 25.8332 31.1703 25.8991 31.0777C25.9052 31.0691 25.9099 31.0598 25.9135 31.05C25.9227 31.025 25.9388 30.9735 25.9567 30.8695C25.9934 30.6489 26.0345 30.2007 26.0383 29.2903C26.0383 29.2423 26.0383 29.2078 26.0392 29.1918C26.0467 28.8539 26.0335 28.5829 26.0204 28.3435C25.9959 27.8501 25.9761 27.4617 26.2211 27.0665C26.4595 26.6819 26.6911 26.5363 26.9135 26.3955C27.1723 26.2333 27.4643 26.0491 27.9559 25.3747C28.1971 25.0425 28.2269 24.9085 28.2504 24.8016C28.3038 24.5509 28.3866 24.4 28.759 24.1186C29.062 23.8896 29.9843 23.1907 31.2284 23.4C31.6364 23.4693 32.2978 23.6869 32.9506 23.944C32.9509 23.9442 32.9512 23.9442 32.9515 23.9442C32.9519 23.9442 32.9519 23.9443 32.9522 23.9443C32.9757 23.9512 32.9999 23.9593 33.0221 23.9706C33.0322 23.9759 33.0426 23.9812 33.0534 23.9855C33.6177 24.2108 34.1669 24.4615 34.5303 24.6656C34.6338 24.7238 34.7654 24.6891 34.8408 24.5975C34.9532 24.4613 35.075 24.3783 35.2056 24.3C35.2578 24.268 35.2983 24.2438 35.3368 24.2109C35.4593 24.1069 35.458 23.8888 35.3153 23.8154C33.5781 22.9231 31.9499 22.4243 31.4085 22.2703ZM18.9458 22.6728C18.5414 24.4433 15.7988 26.3892 14.5522 26.3892H14.5277C14.5079 26.3882 14.4863 26.3864 14.463 26.3826C14.4395 26.3788 14.4141 26.3732 14.3871 26.3657C14.374 26.3619 14.3598 26.3572 14.3457 26.3534C14.1195 26.2822 13.8062 26.1084 13.569 25.875C13.4059 25.7147 13.2773 25.5259 13.2368 25.3223C13.2293 25.2866 13.2217 25.2511 13.2142 25.2153C13.1468 24.9142 13.063 24.5381 13.3287 23.9226C13.3654 23.8401 13.398 23.7629 13.4282 23.6926C13.4376 23.6691 13.4479 23.6456 13.4573 23.6233C13.4856 23.5568 13.5106 23.4956 13.5332 23.4404C13.5709 23.3466 13.6016 23.2669 13.627 23.1992C13.6374 23.1728 13.6468 23.1474 13.6553 23.1242C13.7312 22.9112 13.7406 22.8315 13.7509 22.749C13.7603 22.6844 13.7698 22.6054 13.7961 22.4927C13.8739 22.1605 13.9144 21.8792 13.9502 21.6285C14.0138 21.178 14.0693 20.7887 14.3122 20.4314C14.3536 20.3706 14.3994 20.315 14.4511 20.2664C14.469 20.2495 14.486 20.2335 14.5044 20.2175C14.5233 20.2015 14.5421 20.1874 14.5606 20.1733C14.6196 20.1319 14.6826 20.0954 14.751 20.0644C14.7746 20.054 14.7981 20.0437 14.8213 20.0352C14.8693 20.0173 14.9198 20.0023 14.9725 19.9891C15.1958 19.9348 15.4594 19.9264 15.7624 19.9646C16.0937 19.991 16.4004 20.0537 16.6724 20.1296C16.8995 20.1924 17.1022 20.2658 17.2738 20.3342C17.2917 20.3408 17.3086 20.3474 17.3255 20.3549C17.3585 20.3681 17.3902 20.3812 17.4212 20.3954C17.4683 20.4151 17.5113 20.4339 17.5517 20.4515C17.605 20.476 17.654 20.4976 17.6973 20.5171L17.7378 20.5359C17.9291 20.6231 18.0935 20.7188 18.234 20.8192C18.3034 20.87 18.3683 20.9214 18.4263 20.9738C18.4461 20.9908 18.4649 21.0086 18.4825 21.0275C18.5013 21.0453 18.5192 21.0632 18.5358 21.0811C19.0628 21.636 19.0368 22.2778 18.9458 22.6728ZM20.2169 15.9624L20.1636 16.2834C20.0406 17.0068 19.7583 17.9984 18.7168 18.2537C17.7149 18.4987 17.4774 18.5511 16.7643 18.5831C16.7483 18.585 16.7314 18.585 16.7145 18.585C16.1937 18.585 15.1918 18.2566 15.0142 17.4403C14.9007 16.9148 15.1325 16.534 15.5142 15.9025C15.5779 15.7984 15.6466 15.6867 15.7197 15.5619C16.2245 14.7117 16.4234 14.0963 16.583 13.6028C16.7386 13.1207 16.8682 12.722 17.2013 12.3916C17.2782 12.3148 17.3654 12.2423 17.4667 12.173C17.5314 12.1288 17.5991 12.0895 17.6703 12.0528C17.765 12.0058 17.8645 11.9647 17.9686 11.9318C18.2004 11.8577 18.4508 11.82 18.7014 11.82C19.1874 11.82 19.6726 11.96 20.0187 12.2376C20.1743 12.3624 20.3957 12.6119 20.5244 13.3475C20.5906 13.7264 20.4779 14.4228 20.2169 15.9624ZM27.6469 18.021C27.2883 18.6364 27.0923 18.9752 26.7826 19.2293C26.1681 19.7341 25.4513 19.8617 24.8612 19.8617C24.4371 19.8617 24.077 19.7962 23.8649 19.7576C23.2551 19.6459 22.1198 19.4395 21.7418 18.5436C21.6678 18.3663 21.6668 18.2537 21.6668 18.111C21.6668 17.9701 21.6668 17.733 21.6013 17.1689L21.5975 17.1313C21.5674 16.876 21.5338 16.587 21.6069 16.2166L21.6154 16.1723C21.8293 15.0841 21.8874 14.9178 21.9354 14.824C22.0461 14.6101 22.3087 14.5257 22.5226 14.6355C22.73 14.7434 22.8162 14.9947 22.7187 15.2058C22.697 15.2676 22.6362 15.4994 22.4708 16.3411L22.4624 16.3853C22.4153 16.6228 22.436 16.8029 22.4633 17.0309L22.4671 17.0695C22.5383 17.6822 22.5383 17.9598 22.5383 18.11C22.5383 18.1365 22.5383 18.1656 22.5392 18.183C22.5395 18.1896 22.5428 18.1985 22.5449 18.2048C22.6084 18.3553 22.743 18.4733 22.9103 18.5667C23.0541 18.647 23.209 18.5061 23.1781 18.3442C22.9979 17.4006 23.0164 16.3176 23.3743 15.6425C23.4943 15.4129 23.7163 15.0375 23.9271 14.6869C23.9277 14.6859 23.9284 14.685 23.9289 14.684C23.9294 14.683 23.9302 14.6821 23.9307 14.6811C23.9521 14.6458 23.9734 14.6109 23.9945 14.5756C24.0124 14.5455 24.0303 14.5166 24.0469 14.4884C24.1397 14.3344 24.227 14.1929 24.2966 14.0803C24.306 14.0643 24.3154 14.0483 24.3248 14.0332C24.3314 14.0219 24.338 14.0116 24.3446 14.0022C24.3596 13.9777 24.3728 13.9551 24.385 13.9356C24.3907 13.9262 24.3963 13.9178 24.401 13.9093C24.4039 13.9055 24.4057 13.9018 24.4076 13.8989C24.4142 13.8876 24.4208 13.8773 24.4265 13.8688C24.4377 13.8509 24.4462 13.8378 24.4509 13.8293C24.4513 13.8286 24.4516 13.828 24.4519 13.8273C24.453 13.8254 24.455 13.8227 24.4561 13.8208C24.4568 13.8195 24.457 13.8193 24.4578 13.8181C24.5097 13.7425 24.5612 13.6696 24.6118 13.5997C24.7259 13.4422 24.5925 13.2408 24.4152 13.3208C24.1108 13.4581 23.9058 13.6145 23.8609 13.6502C23.6723 13.8005 23.3982 13.7694 23.2491 13.5809C23.0998 13.3923 23.1309 13.1175 23.3194 12.9672C23.5437 12.791 24.7323 11.9239 26.1559 12.3311C27.1814 12.6228 27.719 13.4064 27.9217 13.701C28.0848 13.9403 28.5852 14.6666 28.5692 15.6808C28.5572 16.454 28.2344 17.0105 27.6469 18.021Z" fill="white"/>
<path d="M18.4018 12.7173C18.329 12.8936 18.2418 13.1123 18.148 13.3497C17.9293 13.8997 17.6812 14.5226 17.562 14.7485C17.3562 15.1388 17.1963 15.385 17.0683 15.5836C16.9221 15.8113 16.8054 15.9917 16.7172 16.243C16.5629 16.6828 16.5353 17.1744 16.6357 17.7089C16.363 17.6788 15.9167 17.4909 15.8662 17.2543C15.8285 17.078 15.938 16.8855 16.2605 16.355C16.3251 16.2489 16.3944 16.1338 16.4703 16.0058C17.0247 15.0723 17.249 14.3777 17.414 13.8698C17.5918 13.3174 17.6759 13.0856 17.9592 12.892C18.0859 12.8039 18.2402 12.7478 18.4018 12.7173Z" fill="white"/>
<path d="M17.861 32.2968C17.5589 32.914 17.1827 33.4834 16.9484 33.7659C16.7542 33.2411 16.417 32.039 16.5061 31.0718C16.5086 31.0439 16.5117 31.0163 16.5158 30.9893C16.5516 30.6906 16.6309 30.4165 16.7721 30.1969C16.8653 30.0526 17.1231 29.9644 17.4161 29.9644C17.6323 29.9644 17.8675 30.0118 18.0699 30.1204H18.0714C18.18 30.1784 18.3277 30.2957 18.3431 30.637C18.3654 31.0978 18.1458 31.7174 17.861 32.2968Z" fill="white"/>
<path d="M34.4144 25.3805C34.4379 25.3993 34.4526 25.4278 34.4392 25.4548C34.3491 25.6361 34.2407 25.7632 34.113 25.9131C33.9589 26.0967 33.7825 26.3049 33.6183 26.6296C33.3848 27.0898 33.31 27.5096 33.2709 28.5843C33.2245 29.8469 33.2731 30.5562 33.31 31.0735C33.345 31.5729 33.3665 31.8741 33.2774 32.3612C33.0978 33.3437 32.6776 33.9944 32.1452 34.818C31.4793 35.8478 30.7903 36.912 29.6494 37.2516C29.5434 37.2842 29.54 37.2842 29.2423 37.2852C28.9834 37.2852 28.5527 37.2859 27.7374 37.3162C26.2471 37.3701 25.4995 37.3969 24.8599 37.52C24.1889 37.65 23.8388 37.7927 23.4994 37.9298C23.1932 38.0536 22.9036 38.1714 22.3487 38.2854C22.0181 38.3523 21.5237 38.4251 19.8391 38.4274C18.0884 38.4307 17.0315 38.4317 15.6359 38.2727C13.721 38.0539 12.7598 37.9445 12.1215 37.6036C10.6157 36.8003 9.97986 35.3558 8.928 32.9629C8.92621 32.9587 8.92438 32.9545 8.92258 32.9502C8.90959 32.9205 8.94586 32.8918 8.97381 32.9084C9.02371 32.9394 9.07576 32.9649 9.13068 32.9832C9.17646 32.9995 9.22446 33.0119 9.27279 33.0201C9.36908 33.0364 9.46946 33.0374 9.5714 33.0201C9.58929 33.0168 9.60562 33.0129 9.62129 33.006C9.6243 33.0051 9.62727 33.0034 9.63024 33.0021C9.64803 32.9933 9.67024 33.0008 9.67775 33.0191C9.74459 33.2036 9.85091 33.3675 10.0294 33.4622C10.2082 33.5556 10.4115 33.5628 10.6104 33.5611C10.8152 33.5579 11.0217 33.5465 11.2259 33.522C11.3341 33.5105 11.4447 33.5634 11.4862 33.664C11.673 34.1172 11.9048 34.4454 12.2526 34.4937C12.2714 34.4963 12.2959 34.4993 12.327 34.4993C12.3948 34.4993 12.4944 34.4823 12.6304 34.402C12.7982 34.303 13.051 34.3654 13.1785 34.5127C13.2535 34.5995 13.3358 34.6664 13.4083 34.7246C13.7665 35.0926 14.6374 35.2689 15.3686 35.2689C15.7676 35.2689 16.1252 35.2167 16.3357 35.1138C16.6369 34.9678 16.6369 34.7435 16.6221 34.6527C16.5965 34.4901 16.5734 34.3288 16.5536 34.1688C16.5512 34.1499 16.5802 34.1424 16.5879 34.16C16.6318 34.2553 16.6852 34.3745 16.8279 34.3974C16.8433 34.399 16.8605 34.4026 16.8803 34.4026C17.0842 34.4026 17.4012 34.4689 17.4559 34.6651C17.4837 34.7651 17.5232 34.8588 17.5767 34.9437C17.699 35.1373 17.9481 35.3682 18.4419 35.3763H18.4802C19.0473 35.3763 19.4849 35.1909 19.7801 34.8245C19.7993 34.8007 19.8176 34.7765 19.8351 34.7517C19.9412 34.6025 20.2562 34.5959 20.3912 34.72C20.5431 34.8604 20.7341 34.9329 20.9471 34.9329C20.9813 34.9329 21.0158 34.9313 21.0516 34.9273C21.3053 34.9002 21.5249 34.7657 21.689 34.5365C21.7963 34.3866 21.8746 34.2025 21.9319 34.0033C21.9487 33.9445 22.0293 33.9272 22.0742 33.9683C22.1828 34.0686 22.3565 34.1747 22.6072 34.1747C22.6683 34.1747 22.7346 34.1682 22.8048 34.1535C23.2973 34.0545 23.5426 33.6467 23.6587 33.1866C23.6626 33.1713 23.6849 33.167 23.6951 33.1791C23.82 33.3309 24.0502 33.5063 24.4508 33.5063C24.4712 33.5063 24.4925 33.5063 24.5135 33.5053C24.7256 33.4955 24.9044 33.4025 25.0333 33.2359C25.1849 33.0384 25.2477 32.7491 25.2648 32.4549C25.2711 32.3466 25.3406 32.2514 25.4401 32.2081C25.8567 32.0265 26.3483 31.6577 26.4949 31.4044C26.4959 31.4027 26.4969 31.4009 26.4979 31.3991C26.543 31.3198 26.6137 31.2551 26.7033 31.2376C27.0127 31.1771 27.1512 31.1173 27.2776 31.0622C27.3836 31.0158 27.4686 30.9791 27.7067 30.9421C29.6002 30.6532 29.9697 30.5895 30.3794 30.3162C30.9924 29.9075 31.0234 29.345 31.0536 28.8008C31.0796 28.3405 31.1091 27.8183 31.4664 27.2053C31.5962 26.9816 31.7462 26.7024 31.9055 26.4072C32.178 25.9017 32.5564 25.1987 32.8336 24.8127C32.8967 24.725 33.0122 24.6976 33.1115 24.74C33.7531 25.0136 34.2958 25.2851 34.4144 25.3805Z" fill="white"/>
<path d="M16.0258 31.0122C15.9509 31.6669 15.905 32.5415 16.0111 33.681C16.0412 34.0023 16.0829 34.3363 16.135 34.674C16.0453 34.7229 15.7774 34.7918 15.3009 34.784C14.6161 34.7703 13.9495 34.5982 13.7493 34.3817L13.7182 34.3536C13.5517 34.2198 13.4425 34.1316 13.4268 33.8926C13.4218 33.8119 13.4563 33.7319 13.5303 33.6189C13.5711 33.5553 13.6251 33.4821 13.6919 33.3913C13.807 33.2369 13.9497 33.0442 14.0959 32.7964C14.5244 32.0722 14.687 31.8486 14.8934 31.5662C14.9097 31.5433 14.9269 31.5204 14.9448 31.4969C15.0665 31.3303 15.2092 31.1311 15.4238 30.8039C15.5838 30.5608 15.7168 30.3704 15.8263 30.2211C16.0092 29.9723 16.129 29.8374 16.2059 29.764C16.1946 29.8766 16.1692 30.0351 16.1447 30.1813C16.1083 30.4058 16.0625 30.681 16.0258 31.0122Z" fill="white"/>
<path d="M15.7122 20.8354C15.7082 20.841 15.7031 20.8467 15.699 20.8526C15.61 20.9759 15.508 21.1155 15.3866 21.3872C15.06 22.1128 15.0538 22.5234 15.0488 22.8537C15.0456 23.0269 15.0437 23.1646 14.9964 23.3255C14.9637 23.4316 14.9107 23.5533 14.8495 23.6935C14.6569 24.1342 14.4057 24.7121 14.5183 25.4897C14.3624 25.4148 14.124 25.2432 14.0907 25.1519C14.0826 25.1096 14.0734 25.0678 14.0637 25.0261C14.0098 24.7836 13.974 24.6255 14.1284 24.2704C14.534 23.335 14.5838 23.1131 14.6155 22.8584C14.6221 22.8029 14.6287 22.7596 14.645 22.6893C14.7307 22.3204 14.7755 22.0045 14.8122 21.7508C14.8668 21.3656 14.9035 21.1108 15.0334 20.9192C15.0807 20.8483 15.2147 20.8116 15.4064 20.8116C15.4823 20.8116 15.5679 20.8172 15.6611 20.8304L15.683 20.8319C15.6924 20.8329 15.7025 20.8338 15.7122 20.8354Z" fill="white"/>
<path d="M15.1771 30.0623C15.1551 29.838 15.1159 29.6134 15.0344 29.402C15.0287 29.3913 15.0043 29.3373 14.9992 29.327C14.9845 29.3 14.9676 29.2746 14.9519 29.2479C14.9509 29.247 14.9503 29.247 14.9503 29.2464C14.9493 29.2448 14.9487 29.2448 14.9487 29.2439C14.9396 29.2341 14.9315 29.2244 14.9227 29.2153C14.9095 29.2021 14.8951 29.1893 14.881 29.1777C14.8784 29.1745 14.8759 29.172 14.8737 29.1711C14.8671 29.1654 14.8575 29.1579 14.8468 29.1516C14.8295 29.1425 14.8132 29.1328 14.7963 29.124C14.7912 29.1209 14.779 29.1159 14.7677 29.1118C14.7677 29.1118 14.7668 29.1118 14.7668 29.1109C14.7643 29.1099 14.7617 29.1093 14.7596 29.1083C14.757 29.1068 14.7555 29.1058 14.7539 29.1052C14.7514 29.1043 14.7498 29.1036 14.7483 29.1036C14.7467 29.1036 14.7467 29.1027 14.7467 29.1027C14.7417 29.1002 14.7386 29.0996 14.736 29.0986C14.6055 29.0506 14.4732 28.9982 14.3345 28.9778C14.3336 28.9778 14.3314 28.9769 14.3295 28.9769H14.3263C14.311 28.9769 14.279 28.9737 14.2774 28.9737C14.258 28.9728 14.2391 28.9728 14.2203 28.9737C14.2112 28.9737 14.2024 28.9737 14.1943 28.9747H14.187C14.1839 28.9747 14.1798 28.9756 14.1758 28.9756C14.1742 28.9772 14.1717 28.9772 14.1708 28.9772C14.1698 28.9772 14.1692 28.9772 14.1692 28.9772C14.1381 28.9863 14.1055 28.9945 14.0744 29.0042C14.0613 29.0108 14.0468 29.0174 14.0337 29.0255C14.0224 29.0321 14.0108 29.0403 13.9995 29.0459C13.9985 29.0469 13.997 29.0484 13.9954 29.0484L13.9929 29.0509C13.9781 29.0657 13.9628 29.0795 13.948 29.0942C13.943 29.0992 13.9292 29.1162 13.9195 29.1284C13.917 29.13 13.9154 29.1316 13.9154 29.1331C13.9145 29.1341 13.9145 29.1341 13.9138 29.1347C13.9129 29.1356 13.9129 29.1363 13.9113 29.1372C13.9104 29.1382 13.9104 29.1388 13.9098 29.1388C13.9057 29.146 13.9016 29.1519 13.9 29.1551C13.8477 29.2366 13.7946 29.3176 13.74 29.3982C13.6142 29.5908 13.4853 29.7825 13.3548 29.9729C13.2356 30.1451 13.1164 30.3173 12.9982 30.4896C12.932 30.5859 12.8667 30.6812 12.8014 30.7775C12.7902 30.7938 12.7795 30.8102 12.7688 30.8265C12.8463 30.8412 12.9238 30.8566 13.0022 30.8713C13.1776 30.9033 13.3523 30.9341 13.5302 30.9585C13.8966 31.0084 14.2689 31.0313 14.64 31.0182C14.6579 31.0172 14.6758 31.0182 14.6924 31.0213C14.7815 30.8939 14.8866 30.7421 15.0206 30.5388C15.0949 30.4252 15.1658 30.3202 15.2326 30.2229C15.2025 30.1765 15.1837 30.1209 15.1771 30.0623Z" fill="white"/>
<path d="M13.8727 31.5764C13.841 31.8587 13.5251 32.5899 13.032 33.2862C12.6191 33.8681 12.3685 34.0091 12.3186 34.014C12.1194 33.9866 11.9227 33.4936 11.7668 33.0047C11.7041 32.8065 11.6476 32.6088 11.6002 32.4431C11.4933 32.0711 11.4738 31.5723 11.4926 31.2589C11.9089 31.4898 12.6401 31.5519 13.6669 31.556H13.67C13.7378 31.5632 13.8049 31.5707 13.8727 31.5764Z" fill="white"/>
<path d="M13.142 29.2518V29.2534C13.137 29.26 13.1329 29.2672 13.1282 29.2737C12.9519 29.5332 12.774 29.7913 12.5962 30.0498C12.5039 30.1829 12.4127 30.3159 12.322 30.4498C12.2721 30.5226 12.2053 30.6026 12.1473 30.6888C12.0011 30.6547 11.8552 30.6211 11.7106 30.5803C11.5923 30.5461 11.4756 30.5094 11.3611 30.4636C11.3382 30.4554 11.3163 30.4464 11.295 30.436C11.2761 30.3977 11.2491 30.3632 11.2165 30.3372C11.2175 30.3362 11.2175 30.334 11.2181 30.3331C11.2598 30.2481 11.3022 30.1624 11.3439 30.0777C11.4229 29.9219 11.5023 29.7669 11.5904 29.6166C11.7473 29.3456 11.9365 29.0698 12.2019 28.8942C12.215 28.8844 12.2295 28.8753 12.2436 28.8665C12.3464 28.8019 12.4494 28.7564 12.5758 28.7408C12.5905 28.7392 12.6793 28.7398 12.721 28.7433C12.7282 28.7433 12.7342 28.7442 12.7383 28.7442H12.7392C12.7424 28.7452 12.7483 28.7467 12.7571 28.7499C12.7881 28.7596 12.8192 28.7662 12.8503 28.7768C12.8609 28.7819 12.8707 28.7866 12.8813 28.7922C12.9083 28.8085 12.9359 28.8233 12.9613 28.8437C12.9205 28.8126 13.0178 28.913 13.0178 28.9058C13.0962 29.0143 13.12 29.105 13.142 29.2518Z" fill="white"/>
<path d="M11.7454 28.5141C11.4188 28.7826 11.1814 29.1402 10.9831 29.5123C10.8721 29.7187 10.7717 29.9292 10.6672 30.1391C10.6566 30.1604 10.6459 30.1808 10.6337 30.2018C10.5349 30.1805 10.436 30.1519 10.3397 30.1212C10.2368 30.0886 10.1349 30.0509 10.037 30.0055C9.99216 29.9841 9.94733 29.9622 9.90247 29.9386C10.0003 29.7532 10.117 29.5753 10.2281 29.4025C10.3849 29.1585 10.5546 28.9185 10.7391 28.6932C10.8084 28.6076 10.8818 28.5138 10.979 28.4573C11.0785 28.3987 11.1986 28.4125 11.3128 28.4191C11.4336 28.4266 11.5635 28.4297 11.6777 28.4755C11.7012 28.4856 11.7266 28.5013 11.7454 28.5141Z" fill="white"/>
<path d="M11.2269 32.896C11.2106 32.9097 11.1968 32.9247 11.1846 32.9417C11.1733 32.945 11.1616 32.9476 11.1544 32.9492C11.076 32.9574 10.996 32.9633 10.917 32.9682C10.7651 32.978 10.6108 32.9845 10.4574 32.9789C10.3718 32.9757 10.2943 32.9626 10.2591 32.9081C10.2027 32.8222 10.1857 32.673 10.1653 32.5594C10.0649 32.002 10.0518 31.421 10.123 30.857C10.4144 30.9614 10.714 31.0424 11.0214 31.0929C10.9552 31.6014 11.0679 32.348 11.134 32.5767C11.1648 32.6831 11.1958 32.7905 11.2269 32.896Z" fill="white"/>
<path d="M10.2895 28.3294C10.0317 28.646 9.79672 28.9832 9.58591 29.3323C9.50091 29.4744 9.40459 29.6213 9.3337 29.7731C9.23175 29.7446 9.13951 29.7038 9.04165 29.6432C8.96668 29.5968 8.89389 29.5453 8.823 29.4914C8.80511 29.4766 8.75616 29.4384 8.72576 29.4139C8.71855 29.4083 8.71195 29.4026 8.70441 29.3985C8.72795 29.3317 8.77125 29.2574 8.79508 29.2075C8.84903 29.0892 8.90927 28.9732 8.97232 28.8599C9.09216 28.6479 9.2261 28.4405 9.37794 28.2495C9.4344 28.1792 9.48805 28.0885 9.57556 28.0625C9.65556 28.0396 9.76096 28.0503 9.82526 28.0616C10.0163 28.0986 10.1656 28.1851 10.2895 28.3294Z" fill="white"/>
<path d="M8.30083 29.7094C8.30505 29.6929 8.3262 29.6907 8.33613 29.7046C8.40359 29.7985 8.49623 29.8804 8.59546 29.9578C8.63994 29.9916 8.68415 30.0254 8.72908 30.0572C8.73607 30.0622 8.73936 30.0709 8.73737 30.0791C8.6335 30.5101 8.56176 30.9667 8.55938 31.4176C8.55925 31.4425 8.52167 31.4478 8.51585 31.4236C8.38723 30.8855 8.22012 30.0253 8.30083 29.7094Z" fill="white"/>
<path d="M9.56539 30.6653C9.51302 31.0506 9.48791 31.4367 9.50486 31.8251C9.51302 32.0381 9.53591 32.2495 9.56445 32.46C9.56445 32.4616 9.56445 32.4631 9.56539 32.4641V32.465C9.51958 32.4544 9.47161 32.4528 9.42267 32.46C9.4324 32.4569 9.40729 32.4584 9.39664 32.4584H9.39348C9.38629 32.4575 9.37561 32.4569 9.37215 32.4559C9.31821 32.4428 9.31351 32.4371 9.27083 32.4101C9.21532 32.3744 9.15664 32.3088 9.11743 32.242C9.01392 32.0626 8.99103 31.8445 8.98286 31.6413C8.96748 31.2422 9.00167 30.8438 9.07602 30.453C9.1397 30.479 9.19524 30.5029 9.28745 30.5427C9.37875 30.5825 9.47348 30.6217 9.56572 30.6644V30.6653H9.56539Z" fill="white"/>
<g opacity="0.8">
<path opacity="0.8" d="M19.7508 50.8222C17.993 50.8222 16.3259 50.7112 14.9269 50.6021L14.5413 50.5721L14.1561 50.5185C13.9877 50.495 13.7586 50.4702 13.5376 50.446C12.1918 50.2998 9.68899 50.0271 6.92598 48.7295L6.49686 48.5273L6.09669 48.303C0.786319 45.3267 -1.20105 40.847 -2.27117 38.4389C-2.33929 38.2857 -2.4219 38.0996 -2.49968 37.9282C-3.03983 36.8225 -3.38151 35.826 -3.67117 34.9136L-3.73553 34.7095L-3.78918 34.5117C-4.55999 31.7723 -4.7547 29.4068 -4.40175 27.0675C-4.04773 24.7186 -3.17769 22.5816 -1.66611 20.3448L-0.882432 19.065C-0.723235 18.8065 -0.610834 18.5219 -0.550396 18.2244C0.0471551 15.263 1.40318 13.1651 2.06939 12.1631C2.25277 10.9503 2.55516 9.7586 2.97216 8.60513L3.03438 8.43027L3.10089 8.25969C3.11162 8.22965 3.12557 8.1873 3.15131 8.11004C3.45062 7.20836 4.15224 5.09868 5.9492 2.88334L6.62398 2.06586L7.31165 1.44472C9.07798 -0.160298 11.1822 -1.34815 13.469 -2.03117C14.7457 -2.41191 16.0619 -2.64462 17.3917 -2.72473L17.5204 -2.73439L17.7141 -2.7435C17.9442 -2.75423 18.1732 -2.7596 18.3969 -2.7596C19.2267 -2.76114 20.0551 -2.69133 20.873 -2.55094C21.3839 -2.46493 21.9088 -2.52499 22.3872 -2.7242C23.8051 -3.31566 25.2955 -3.71575 26.8189 -3.91393C26.9461 -3.93218 27.0571 -3.94612 27.1446 -3.95739C27.3849 -3.98743 27.7668 -4.03249 28.2281 -4.07647C29.0327 -4.15318 30.2664 -4.2449 31.6037 -4.2449C34.2155 -4.2449 36.4634 -3.90642 38.4761 -3.21071L38.6472 -3.15117L38.8144 -3.08841C43.2558 -1.41001 45.5167 0.934595 47.1425 3.00296L47.2199 3.10166L47.4436 3.30067C48.9123 4.44973 50.1616 5.85482 51.1308 7.44813L51.4338 7.94697L51.6898 8.46998C53.8622 12.9044 53.1719 16.9988 52.9117 18.5371L52.8976 18.6192C52.7105 19.7541 52.4131 20.868 52.0088 21.9449C51.8602 22.9832 51.6157 24.0055 51.2784 24.9986C50.7017 26.764 49.8508 28.4277 48.7572 29.9287C48.1274 30.8194 47.4165 31.6498 46.6331 32.409C46.3562 32.6766 46.1767 33.0292 46.1231 33.4106C46.0891 33.6454 46.0506 33.8776 46.0065 34.1078C45.3698 37.5236 43.8759 39.9011 43.266 40.8477L41.4224 43.4955C39.2023 46.2616 36.5682 48.0859 33.3803 49.0665L32.6078 49.3084L31.7737 49.4537C30.8194 49.6222 29.8521 49.7058 28.883 49.7038C28.7495 49.7038 28.6148 49.7038 28.4657 49.6999H28.4228L28.2581 49.71L28.0816 49.7166H28.0768C27.7074 49.729 27.3412 49.7894 26.9874 49.8962C24.9281 50.526 22.5991 50.8222 19.7508 50.8222Z" stroke="#89D0FF" stroke-width="0.332042" stroke-miterlimit="10"/>
<path opacity="0.6" d="M19.7508 49.0031C18.0665 49.0031 16.4509 48.896 15.0932 48.7886L14.7714 48.7638L14.4496 48.7193C14.2489 48.6916 14.0038 48.6658 13.7673 48.639C12.4601 48.4967 10.2748 48.2593 7.83519 47.1151L7.47689 46.9466L7.14376 46.7595C2.45777 44.1309 0.724124 40.2286 -0.312202 37.8965C-0.386227 37.7303 -0.476871 37.5259 -0.561622 37.3401C-1.04438 36.35 -1.36086 35.4354 -1.62799 34.5936L-1.68163 34.4242L-1.7283 34.2589C-2.41382 31.8227 -2.59083 29.7436 -2.28508 27.715C-1.97933 25.6863 -1.20906 23.8116 0.134624 21.8355L1.13877 20.1957C1.31634 19.9052 1.43821 19.5841 1.49815 19.2489C1.99808 16.4634 3.31388 14.4884 3.91196 13.5894L3.98758 13.4757L4.0155 13.4306C4.02781 13.4032 4.03963 13.3769 4.0509 13.3485C4.08737 13.23 4.12329 13.1152 4.15816 13.0057C4.31545 11.8631 4.59323 10.7402 4.9869 9.65593L5.04055 9.51004L5.09795 9.36359C5.11617 9.31693 5.13335 9.26651 5.18376 9.11523C5.46859 8.25701 6.06131 6.47507 7.61207 4.56333L8.17475 3.88212L8.74601 3.36555C10.2775 1.97398 12.102 0.94413 14.0848 0.352048C15.2105 0.017868 16.3708 -0.186051 17.543 -0.255699L17.6503 -0.264277L17.8112 -0.271787C18.007 -0.280906 18.2022 -0.285197 18.3926 -0.285197C19.2335 -0.286693 20.0723 -0.528752 20.8961 -0.359622C21.5317 -0.228143 22.1925 -0.298467 22.7863 -0.560772C23.8956 -1.04997 25.3889 -1.24535 27.0984 -1.4583C27.2202 -1.476 27.3264 -1.48942 27.409 -1.49961C27.6338 -1.52804 27.9932 -1.57042 28.4282 -1.61172C29.1845 -1.68413 30.3485 -1.77264 31.5999 -1.77264C33.9693 -1.77264 35.9876 -1.47279 37.7711 -0.855929L37.9138 -0.806584L38.0532 -0.752945C41.9899 0.734497 43.9357 2.72563 45.4514 4.65613C45.5357 4.76343 45.6219 4.87337 45.6542 4.91148L45.6901 4.94364L45.9775 5.19951L46.0163 5.23922C47.3257 6.24238 48.4372 7.48056 49.2937 8.89048L49.5458 9.30619L49.7603 9.74175C51.6291 13.5561 51.0433 17.0261 50.7935 18.5082L50.7801 18.587C50.6028 19.6637 50.3125 20.7187 49.9141 21.7346C49.7888 22.7233 49.5638 23.6968 49.2428 24.6403C48.7328 26.2024 47.9804 27.6746 47.0129 29.0029C46.3579 29.9339 45.6007 30.7886 44.7553 31.5508C44.3628 31.903 44.1153 32.3883 44.0604 32.9127C44.0196 33.2989 43.9644 33.6744 43.8949 34.0428C43.3332 37.058 42.0206 39.1435 41.4198 40.0774L39.9265 42.2482C37.9419 44.7984 35.5902 46.466 32.7412 47.344L32.0977 47.5458L31.4004 47.6663C30.5681 47.8132 29.7244 47.8864 28.8793 47.8847C28.7565 47.8847 28.6309 47.8847 28.4958 47.8815H28.4577H28.3778C28.3778 47.8815 28.3509 47.8815 28.2962 47.8854L28.1487 47.8945L28.0001 47.8998L27.7035 47.9112C27.3114 47.9249 26.923 47.9925 26.5492 48.1117C24.6525 48.7174 22.4607 49.0031 19.7508 49.0031Z" stroke="white" stroke-width="0.332042" stroke-miterlimit="10"/>
<path opacity="0.6" d="M19.7508 46.8575C18.1416 46.8575 16.5764 46.753 15.2589 46.6504L15.002 46.6305L14.7456 46.5953C14.5133 46.5629 14.2521 46.5345 13.9995 46.5068C12.7502 46.3709 10.8637 46.1655 8.74809 45.1732L8.46111 45.0387L8.19293 44.8888C4.12912 42.6109 2.63686 39.2503 1.64881 37.0263C1.5646 36.8359 1.46912 36.6214 1.38061 36.4225C0.951492 35.5497 0.665052 34.7171 0.420987 33.9464L0.378075 33.8113L0.340527 33.6787C-0.259705 31.546 -0.418477 29.7528 -0.159932 28.0368C0.102368 26.2967 0.785741 24.6746 1.98943 22.9314L2.13265 22.7243L2.28767 22.5253C2.3853 22.4008 2.47916 22.278 2.57142 22.1578L3.17541 21.0502C3.3735 20.6882 3.50724 20.2945 3.57072 19.8867C3.95479 17.4016 5.15204 15.6062 5.70453 14.7781L5.70724 14.7737C5.73889 14.7266 5.77964 14.6665 5.80057 14.6332L5.91858 14.4449C5.96471 14.3441 6.02584 14.21 6.07949 14.0695C6.13314 13.9015 6.19697 13.694 6.26669 13.4794C6.39763 12.4208 6.64847 11.3804 7.01444 10.3785L7.05627 10.2615L7.10189 10.1435C7.14049 10.0454 7.16893 9.96009 7.2247 9.79218C7.48915 8.99777 7.97941 7.52319 9.28341 5.91454L9.73454 5.369L10.19 4.9576C11.4863 3.77955 13.0307 2.90773 14.7091 2.40647C15.6833 2.11734 16.6877 1.94203 17.7023 1.88401L17.7881 1.87758L17.9184 1.87168C18.0794 1.86417 18.2403 1.86042 18.4012 1.86042C19.2735 1.85921 20.1424 1.96972 20.9867 2.18923C21.7176 2.37413 22.4904 2.29255 23.1666 1.95911C24.2485 1.43397 25.6957 0.876649 27.3913 0.668525C27.5077 0.651898 27.6059 0.639026 27.6858 0.628832C27.8966 0.60255 28.2324 0.562857 28.64 0.521554C29.3497 0.45343 30.4407 0.372437 31.6079 0.372437C33.7349 0.372437 35.5236 0.633661 37.0792 1.17113L37.1935 1.21083L37.3052 1.25267C40.9208 2.61942 42.5398 4.40939 43.7731 5.97945C44.0451 6.32541 44.0862 6.37906 44.273 6.54481L44.5032 6.7497L44.5927 6.84143C45.1876 7.30219 46.4039 8.25109 47.4687 10.0062L47.6709 10.3388L47.8416 10.6869C49.4067 13.8812 48.9198 16.7659 48.686 18.1526L48.673 18.2293C48.5055 19.2459 48.2224 20.2401 47.8286 21.1923L47.8181 21.2798C47.714 22.1907 47.5128 23.0878 47.2176 23.9559C46.7749 25.3152 46.1205 26.5961 45.2787 27.7514C44.5744 28.761 43.7277 29.6635 42.7651 30.4308C42.5362 30.6123 42.3484 30.8408 42.2152 31.1009C42.0816 31.361 42.0056 31.6466 41.9915 31.9386C41.9654 32.5118 41.8994 33.0824 41.7943 33.6464C41.3081 36.2609 40.1669 38.0735 39.5843 38.9783L38.4268 40.689C36.6818 43.0184 34.6136 44.5264 32.1138 45.2927L31.5994 45.4537L31.0431 45.5504C30.3318 45.6761 29.6107 45.7384 28.8884 45.7371C28.7763 45.7371 28.662 45.7371 28.5387 45.7339H28.5102H28.3868C28.3659 45.7339 28.3021 45.7339 28.1723 45.7417L28.0543 45.7492L27.94 45.7535L27.3436 45.7757C26.9258 45.79 26.5122 45.8645 26.1157 45.9971C24.3783 46.5822 22.3287 46.8575 19.7508 46.8575Z" stroke="white" stroke-width="0.311291" stroke-miterlimit="10"/>
<path opacity="0.6" d="M19.7505 44.7118C18.2126 44.7118 16.7005 44.6103 15.4249 44.5113L15.2324 44.4963L15.0398 44.4699C14.7764 44.4333 14.4991 44.4029 14.2304 44.3739C13.0562 44.2456 11.4507 44.0715 9.6586 43.2307L9.44404 43.1295L9.24397 43.0175C5.80241 41.0864 4.53651 38.2374 3.61174 36.1558C3.51574 35.9412 3.41596 35.7153 3.31725 35.4991C2.92408 34.7086 2.67358 33.9494 2.46546 33.2999L2.43327 33.1984L2.40538 33.0994C1.39909 29.5231 1.77725 27.0143 3.75444 24.1521L3.8617 23.9965L3.97811 23.8474C4.10951 23.6795 4.23235 23.5181 4.35359 23.3646C4.53596 23.1254 4.72048 22.8819 4.92166 22.6314C5.04646 22.4753 5.14719 22.3014 5.2204 22.1154L5.4473 21.5361C5.54347 21.2897 5.60381 21.0309 5.62647 20.7674C5.82334 18.4732 6.93903 16.8007 7.49155 15.972L7.49475 15.9677C7.53498 15.9065 7.59614 15.8153 7.61651 15.7826L7.74579 15.5761L7.78549 15.5224C7.85416 15.3835 7.98879 15.0901 8.10732 14.7828C8.17116 14.5725 8.27199 14.2496 8.3707 13.9562C8.3707 13.9449 8.3707 13.9326 8.37498 13.9197C8.48074 12.9584 8.70226 12.0134 9.03477 11.1052L9.06641 11.0172L9.10072 10.9287C9.16081 10.7758 9.20319 10.6482 9.26167 10.4717C9.49769 9.76259 9.89246 8.57555 10.9503 7.271L11.2887 6.8612L11.6283 6.55439C14.1268 4.28755 16.9226 4.09177 17.857 4.02901L17.9214 4.02417L18.0201 4.01934C18.1472 4.01343 18.2743 4.01075 18.3987 4.01075C19.5081 4.01467 20.6056 4.23913 21.6274 4.67106C21.8083 4.74626 22.0038 4.78045 22.1996 4.77118C22.3953 4.7619 22.5866 4.7094 22.7597 4.61742H22.765C23.715 4.06656 25.4551 3.06777 27.6737 2.80064C27.781 2.78454 27.8797 2.77221 27.9521 2.76309C28.1473 2.73842 28.459 2.70194 28.8419 2.66493C29.505 2.60164 30.5231 2.526 31.6055 2.526C33.49 2.526 35.0498 2.74915 36.3746 3.20723L36.4604 3.23673L36.544 3.26839C39.6428 4.43936 40.9793 5.90855 42.082 7.31286C42.3785 7.68834 42.511 7.86267 42.8431 8.15554L43.0159 8.3095L43.1543 8.45164L43.2614 8.53637C43.7868 8.94297 44.7634 9.69983 45.6304 11.1256L45.7822 11.375L45.9102 11.6362C47.171 14.211 46.7765 16.5459 46.5646 17.8011L46.5522 17.8757C46.403 18.7881 46.1434 19.679 45.779 20.5287L45.7483 20.6017C45.745 20.6172 45.7408 20.6403 45.7342 20.6741C45.7176 20.7604 45.7081 20.8291 45.6967 20.9165L45.6839 21.0152C45.5981 21.7847 45.4286 22.5426 45.1791 23.2756C44.8036 24.4317 44.2479 25.5212 43.5318 26.5037C42.8239 27.5089 42.0301 28.3274 41.139 28.9754C40.7478 29.2611 40.4284 29.6338 40.2061 30.0641C39.9834 30.4943 39.8642 30.9704 39.857 31.4547C39.8495 32.0586 39.7904 32.6609 39.6803 33.2549C39.2696 35.4697 38.3246 36.9695 37.7362 37.8834L36.895 39.1445C35.3888 41.249 33.6118 42.5927 31.473 43.2473L31.3598 43.2829C31.1783 43.3398 30.9932 43.3848 30.8057 43.4168L30.67 43.4407C30.08 43.5451 29.4819 43.5971 28.8827 43.5954C28.7813 43.5954 28.6784 43.5954 28.5668 43.5928H28.5486C28.4976 43.5928 28.4413 43.5928 28.3812 43.5928C28.3393 43.5928 28.2289 43.5928 28.0293 43.6052L27.9408 43.6105L27.8545 43.6137C27.5675 43.6245 27.2108 43.6369 26.8927 43.6509C26.4567 43.6689 26.026 43.7535 25.6155 43.9014C24.076 44.4513 22.1922 44.7118 19.7505 44.7118Z" stroke="white" stroke-width="0.290538" stroke-miterlimit="10"/>
<g opacity="0.8">
<path opacity="0.6" d="M19.7508 42.5662C18.2859 42.5662 16.8263 42.4679 15.5915 42.3719L15.4628 42.3621L15.3346 42.3442C15.039 42.3033 14.7445 42.271 14.4608 42.2403C13.3815 42.1231 12.0384 41.9765 10.5697 41.2878L10.426 41.2202L10.293 41.1458C7.47359 39.5651 6.42011 37.1918 5.57256 35.2849C5.46853 35.0501 5.35803 34.8075 5.25074 34.5714C4.91872 33.9092 4.69394 33.2307 4.50941 32.6496L4.48796 32.5826L4.46918 32.5166C3.63885 29.5664 3.91294 27.6938 5.51839 25.3696L5.58974 25.2661L5.66752 25.1668C5.80754 24.9877 5.93573 24.8203 6.05802 24.6588C6.47696 24.1096 6.8798 23.5807 7.48218 22.9375C7.61426 22.7964 7.69332 22.6139 7.70585 22.421L7.75144 21.7269L7.73374 21.4995L7.74177 21.2634C7.80453 19.3597 8.76094 17.9275 9.27268 17.1583C9.33168 17.0693 9.39336 16.9776 9.42984 16.9191L9.5162 16.7818L9.59614 16.6745C9.69162 16.5184 9.94265 15.9863 10.1326 15.4757C10.198 15.2611 10.3246 14.8518 10.4362 14.5273C10.4689 14.4238 10.4721 14.3986 10.4989 14.1765C10.5861 13.3731 10.7711 12.5834 11.0498 11.8249L11.0707 11.7659L11.0938 11.7064C11.1732 11.5036 11.2284 11.3379 11.2923 11.1458C11.4945 10.5375 11.7991 9.62084 12.6113 8.61937L12.8376 8.34581L13.0618 8.14306C14.8121 6.55371 16.719 6.25278 18.0059 6.16641L18.0493 6.16266H18.1158C18.2092 6.15838 18.302 6.15622 18.3931 6.15622C19.4922 6.15622 20.8069 6.6835 21.4973 7.00213C21.6624 7.07789 21.8408 7.12024 22.0224 7.1268C22.2039 7.13333 22.3849 7.10391 22.5551 7.04021C22.9846 6.88461 23.4032 6.70039 23.8081 6.48879C24.6862 5.97921 26.143 5.13761 27.9523 4.9268C28.0521 4.91178 28.1417 4.90052 28.2157 4.89085C28.3976 4.86832 28.6845 4.8372 29.0402 4.80021C29.657 4.7412 30.6016 4.67093 31.5999 4.67093C33.2411 4.67093 34.5721 4.85546 35.6679 5.23417L35.7247 5.25399L35.7786 5.27492C38.3667 6.25278 39.3966 7.37653 40.3873 8.63763C40.7089 9.04422 40.9365 9.33493 41.409 9.75763L41.5239 9.86009L41.631 9.96736C41.7277 10.0629 41.8315 10.1506 41.9415 10.2297C42.3859 10.5735 43.1304 11.1496 43.7907 12.2369L43.8916 12.4031L43.9775 12.5775C44.9342 14.5305 44.6269 16.3521 44.4431 17.4405L44.4307 17.5145C44.3086 18.2658 44.0944 18.9993 43.793 19.6982V19.7036C43.7094 19.8843 43.6519 20.0759 43.6219 20.2727C43.5961 20.41 43.5797 20.5205 43.5644 20.6428L43.5513 20.7426C43.4824 21.3704 43.3453 21.9888 43.1422 22.5867C42.8359 23.5408 42.3778 24.4392 41.7855 25.2473C40.9113 26.4944 39.9007 27.372 38.6831 27.9293C38.3873 28.0643 38.1345 28.2784 37.953 28.548C37.7711 28.8176 37.6673 29.1321 37.6532 29.457C37.6473 29.59 37.6451 29.6994 37.649 29.7606C37.7091 30.6987 37.777 31.7619 37.568 32.8571C37.2326 34.6687 36.4656 35.8864 35.889 36.7804C35.889 36.7804 33.2434 40.4624 30.836 41.1971L30.577 41.278L30.2986 41.327C29.8301 41.4103 29.3551 41.4514 28.8792 41.4498C28.7891 41.4498 28.6969 41.4498 28.5976 41.4472H28.5891C28.5252 41.4472 28.456 41.4472 28.3777 41.4472C28.2833 41.4472 28.1294 41.4472 27.8901 41.4638L27.8317 41.4674H27.7737C26.8527 41.5007 25.9821 41.5318 25.7402 41.5791C25.6107 41.5993 25.4845 41.6362 25.3647 41.6895C24.0023 42.2867 22.2155 42.5662 19.7508 42.5662Z" stroke="white" stroke-width="0.269786" stroke-miterlimit="10"/>
<path opacity="0.6" d="M19.7507 40.4206C18.3593 40.4206 16.9513 40.3259 15.7572 40.2328L15.6934 40.2282L15.6296 40.2191C15.3029 40.174 14.9929 40.1401 14.6925 40.1074C13.6765 39.9971 12.6257 39.8828 11.4805 39.3456L11.4086 39.3113L11.3421 39.2744C9.14285 38.0408 8.3259 36.1982 7.53364 34.414C7.42099 34.161 7.30458 33.8991 7.18445 33.6389C6.91623 33.1089 6.72636 32.5404 6.55578 32.0019L6.54503 31.9686L6.5354 31.9348C5.87509 29.5864 6.04296 28.3876 7.28636 26.5891L7.32231 26.5354L7.3609 26.4855C7.5068 26.2994 7.6393 26.1256 7.76698 25.9577C8.36453 25.174 8.88107 24.4966 10.0386 23.428L10.0419 23.4248C10.1267 23.3437 10.1863 23.2398 10.2135 23.1256C10.2406 23.0114 10.2341 22.8917 10.1948 22.7811L9.98605 22.1863C9.94412 21.9987 9.91473 21.8086 9.89808 21.6171V21.6107L9.88521 21.4498L9.88952 21.3318C9.93187 20.0396 10.6115 19.021 11.061 18.3467C11.1313 18.2394 11.1984 18.1413 11.2504 18.0576L11.2933 17.9889L11.3416 17.924C11.5803 17.6022 11.9681 16.7112 12.1719 16.1592C12.2256 15.9892 12.3629 15.5327 12.4771 15.2018C12.5585 14.9529 12.6112 14.6955 12.6343 14.4347C12.7018 13.7889 12.8499 13.154 13.0752 12.545L13.086 12.5149L13.0978 12.4855C13.197 12.2307 13.2667 12.0215 13.3343 11.8187C13.514 11.2785 13.7173 10.666 14.2832 9.96813L14.3969 9.83079L14.508 9.73048C15.7513 8.60082 17.1143 8.37339 18.1657 8.30367H18.1877H18.222C18.281 8.30367 18.34 8.29992 18.3985 8.29992C19.4214 8.29992 20.2078 8.71938 20.7281 8.99723L20.8493 9.06162L20.8675 9.07125C21.0102 9.14851 21.1357 9.2161 21.2521 9.27347C21.5754 9.43566 21.947 9.47383 22.2965 9.38077C23.0088 9.18926 24.1203 8.76764 24.868 8.35677L24.8836 8.34766C25.6699 7.89172 26.8543 7.20513 28.2425 7.05277C28.3299 7.03883 28.4136 7.02864 28.4925 7.01845C28.6534 6.99807 28.9216 6.9648 29.2494 6.93532C29.8201 6.88167 30.6917 6.81567 31.6052 6.81567C33.0041 6.81567 34.1055 6.9616 34.9721 7.2609L35.0005 7.27109L35.0296 7.28183C37.106 8.06658 37.8635 8.8878 38.7073 9.96382C39.0505 10.401 39.375 10.814 39.9902 11.3617L40.0477 11.4153L40.1012 11.469C40.2678 11.6368 40.447 11.7912 40.6377 11.9308C41.0067 12.2167 41.5125 12.6083 41.967 13.356L42.0173 13.4392L42.0601 13.5266C42.7132 14.8596 42.4957 16.148 42.337 17.0883L42.3246 17.1623C42.2296 17.7556 42.0598 18.3343 41.8188 18.8847C41.6784 19.2016 41.5785 19.5351 41.5217 19.8771C41.4841 20.0755 41.4622 20.2306 41.4439 20.3743L41.4309 20.4762C41.3793 20.9623 41.2741 21.4412 41.1171 21.9041C40.879 22.6551 40.5192 23.3619 40.0519 23.9961C39.2634 25.1279 38.3892 25.8258 37.2278 26.1953C36.6714 26.3713 36.1923 26.734 35.8723 27.222L35.7799 27.3636L35.6781 27.48C35.3832 27.8158 35.4661 29.1171 35.5171 29.8938C35.571 30.7462 35.6281 31.6275 35.4691 32.4573C35.2072 33.8759 34.5995 34.8336 34.0555 35.6758C34.0555 35.6758 32.0354 38.59 30.2127 39.1435L30.0802 39.1853L29.9408 39.2095C29.5936 39.2715 29.2416 39.3022 28.8889 39.3006C28.8095 39.3006 28.728 39.3006 28.6416 39.3006C28.5649 39.3006 28.4807 39.3006 28.3874 39.3006C28.2634 39.3006 28.0655 39.3006 27.7641 39.3215H27.7351H27.7061C26.4836 39.3662 25.7461 39.3923 25.3384 39.4717C25.0641 39.5203 24.7962 39.6003 24.5403 39.7104C23.4487 40.1943 21.9242 40.4206 19.7507 40.4206Z" stroke="white" stroke-width="0.269786" stroke-miterlimit="10"/>
</g>
</g>
</g>
<defs>
<radialGradient id="paint0_radial_7441_9902" cx="0" cy="0" r="1" gradientUnits="userSpaceOnUse" gradientTransform="translate(24 26.515) rotate(90) scale(26.9635)">
<stop offset="0.166667" stop-color="#073183"/>
<stop offset="1" stop-color="#0054F9"/>
</radialGradient>
</defs>
</svg>
